<?xml version="1.0" standalone="no"?>
<!DOCTYPE svg PUBLIC "-//W3C//DTD SVG 20010904//EN"
 "http://www.w3.org/TR/2001/REC-SVG-20010904/DTD/svg10.dtd">
<svg version="1.0" xmlns="http://www.w3.org/2000/svg"
 width="512.000000pt" height="512.000000pt" viewBox="0 0 512.000000 512.000000"
 preserveAspectRatio="xMidYMid meet">
<metadata>
Created by potrace 1.11, written by Peter Selinger 2001-2013
</metadata>
<g transform="translate(0.000000,512.000000) scale(0.100000,-0.100000)"
fill="#000000" stroke="none">
<path d="M3178 5115 c-2 -2 -34 -6 -73 -10 -38 -3 -79 -8 -90 -10 -11 -3 -37
-7 -57 -10 -200 -28 -531 -126 -776 -231 -57 -25 -91 -34 -110 -30 -59 13 -79
17 -130 26 -29 5 -56 11 -60 13 -6 4 -47 11 -134 23 -16 2 -56 8 -90 14 -201
31 -460 34 -610 5 -16 -3 -38 -7 -50 -9 -122 -22 -269 -71 -357 -118 -176 -96
-278 -222 -346 -432 -19 -60 -33 -111 -31 -114 3 -2 1 -15 -4 -28 -5 -13 -12
-56 -16 -96 -3 -40 -8 -76 -10 -79 -9 -16 -17 -411 -18 -984 l-1 -640 -38 -62
c-81 -133 -119 -275 -116 -433 2 -97 31 -234 63 -295 9 -16 16 -34 16 -38 0
-4 20 -38 45 -76 90 -136 224 -244 366 -294 9 -3 33 -36 54 -74 210 -380 568
-714 975 -909 152 -73 415 -162 531 -179 24 -4 67 -11 94 -16 165 -31 522 -33
692 -3 27 5 203 41 233 48 64 16 211 66 298 102 440 184 815 510 1054 915 62
104 64 107 121 129 168 67 329 232 400 410 40 100 56 182 58 285 2 146 -37
291 -112 416 l-48 80 -1 234 c0 128 4 244 9 257 33 87 64 214 76 314 3 27 8
65 11 84 16 108 2 331 -30 495 -30 153 -112 361 -202 515 -51 86 -168 235
-253 320 -251 250 -560 407 -926 470 -61 11 -399 23 -407 15z m-1408 -1347
c232 -336 628 -592 1160 -752 138 -41 291 -78 298 -72 2 3 -1 49 -7 103 -15
136 -24 232 -25 273 -1 35 -1 35 39 32 206 -15 450 -101 637 -223 41 -26 46
-34 54 -88 16 -100 72 -269 125 -375 22 -43 34 -76 27 -74 -7 3 -62 22 -123
42 -60 21 -119 41 -130 46 -36 17 -209 69 -245 75 -87 13 -123 15 -250 15
-141 0 -179 -3 -270 -21 -71 -14 -173 -61 -215 -98 l-33 -29 -253 1 -252 1
-33 28 c-60 53 -164 91 -304 113 -48 7 -294 7 -361 0 -76 -9 -182 -38 -344
-96 -77 -28 -161 -56 -187 -64 l-47 -13 33 67 c60 120 122 317 140 446 19 133
22 171 19 273 l-3 112 58 54 c66 63 150 126 240 180 61 37 191 104 203 105 3
1 26 -27 49 -61z m215 -1241 c78 -14 152 -51 161 -81 34 -107 -97 -279 -276
-364 -158 -75 -290 -66 -369 25 -46 51 -68 109 -80 208 -18 149 10 185 164
211 62 10 344 11 400 1z m1604 -12 c101 -31 122 -61 114 -160 -9 -122 -37
-200 -92 -258 -39 -42 -76 -58 -146 -63 -163 -10 -384 119 -468 273 -29 54
-34 84 -23 130 6 26 18 37 59 58 71 34 142 42 337 39 121 -1 179 -7 219 -19z
m-2409 -137 c3 -76 32 -218 57 -282 112 -276 392 -369 705 -236 234 100 415
305 442 500 l3 25 171 3 c189 3 173 9 186 -69 15 -86 105 -227 200 -312 184
-165 460 -246 645 -188 207 64 323 238 345 519 2 23 5 45 8 47 4 5 112 -27
153 -45 11 -5 51 -19 88 -32 l68 -22 -6 -51 c-3 -27 -14 -84 -25 -125 l-19
-75 25 30 c14 17 45 60 69 96 l43 67 39 -7 c211 -40 293 -346 136 -508 -58
-59 -116 -83 -190 -78 -32 2 -65 6 -73 9 -12 5 -25 -17 -59 -98 -170 -414
-527 -768 -951 -943 -166 -69 -300 -103 -505 -128 -58 -7 -304 -8 -355 0 -19
2 -57 7 -85 10 -27 4 -104 19 -170 35 -552 135 -1023 546 -1221 1065 -17 47
-26 59 -41 57 -129 -25 -216 8 -282 103 -35 50 -50 95 -54 165 -6 93 20 168
82 233 42 45 73 63 130 76 l41 9 61 -89 c34 -49 65 -91 69 -94 4 -2 -1 30 -11
73 -11 42 -22 97 -25 122 l-5 45 143 51 c158 57 168 59 168 42z"/>
<path d="M2460 1730 c-113 -17 -190 -59 -190 -104 0 -46 88 -99 190 -113 37
-5 159 -4 205 2 92 12 185 63 185 102 0 40 -48 78 -125 100 -55 16 -199 23
-265 13z"/>
</g>
</svg>
